<svg width="21" height="16" xmlns="http://www.w3.org/2000/svg" xmlns:xlink="http://www.w3.org/1999/xlink" overflow="hidden"><defs><clipPath id="clip0"><rect x="663" y="343" width="21" height="16"/></clipPath></defs><g clip-path="url(#clip0)" transform="translate(-663 -343)"><path d="M13.6667 13.9333 10.3333 10.7667 13.6667 7.6 13.6667 13.9333ZM2.86667 14.3333 6.16667 11.2167 6.4 11C7.3 10.15 8.71667 10.15 9.61667 11L9.85 11.2167 13.1333 14.3333 2.86667 14.3333ZM2.33333 7.58333 5.66667 10.75 2.33333 13.9167 2.33333 7.58333ZM4.66667 3.33333 11.3333 3.33333 11.3333 8.88333 9.83333 10.3167C8.75 9.48333 7.25 9.48333 6.16667 10.3167L4.66667 8.88333 4.66667 3.33333ZM12.3333 3.78333 12.3333 2.33333 10 2.33333 8 0.666667 6 2.33333 3.66667 2.33333 3.66667 3.8 1.33333 6.01667 1.33333 15.3333 14.6667 15.3333 14.6667 6.01667 12.3333 3.78333Z" stroke="#2D205F" stroke-width="0.166635" fill="#2D205F" transform="matrix(1.3125 0 0 1 663 343)"/><path d="M8 7.05C7.7 7.05 7.46667 6.8 7.46667 6.51667 7.46667 6.21667 7.71667 5.98333 8 5.98333 8.3 5.98333 8.53333 6.21667 8.53333 6.51667 8.53333 6.81667 8.3 7.05 8 7.05ZM8 8.66667C8.38333 8.66667 8.75 8.56667 9.08333 8.4 9.21667 8.31667 9.26667 8.15 9.2 8.01667 9.11667 7.88333 8.95 7.83333 8.81667 7.9 8.56667 8.03333 8.28333 8.1 8 8.1 7.11667 8.1 6.38333 7.36667 6.4 6.48333 6.4 5.6 7.13333 4.86667 8.01667 4.86667 8.9 4.86667 9.63333 5.58333 9.63333 6.48333L9.63333 7.01667C9.33333 7.01667 9.1 6.78333 9.1 6.48333 9.1 5.95 8.73333 5.5 8.21667 5.4 7.7 5.3 7.18333 5.58333 7 6.06667 6.81667 6.55 7 7.11667 7.45 7.38333 7.9 7.65 8.48333 7.56667 8.83333 7.16667 9.03333 7.4 9.33333 7.53333 9.65 7.53333 9.95 7.53333 10.1833 7.3 10.1833 7L10.1833 6.46667C10.1833 5.26667 9.21667 4.3 8.01667 4.3 6.81667 4.3 5.85 5.26667 5.85 6.46667 5.83333 7.68333 6.8 8.65 8 8.66667Z" stroke="#2D205F" stroke-width="0.166635" fill="#2D205F" transform="matrix(1.3125 0 0 1 663 343)"/></g></svg>